<?xml version="1.0" encoding="UTF-8"?>
<svg id="Layer_1_Image" data-name="Layer 1 Image" xmlns="http://www.w3.org/2000/svg" version="1.1" viewBox="0 0 261.72 110.4">
  <defs>
    <style>
      .cls-1 {
        fill: #707070;
      }

      .cls-1, .cls-2, .cls-3, .cls-4 {
        stroke-width: 0px;
      }

      .cls-2 {
        fill: #e1e1e1;
      }

      .cls-3 {
        fill: #a0a0a0;
      }

      .cls-4 {
        fill: #a1a1a1;
      }
    </style>
  </defs>
  <path class="cls-2" d="M583.19,55.55c.07,0,.14,0,.21.01v6.46c-.07,0-.14,0-.21.01-.43-.18-.53-.57-.56-.98-.09-1.51-.09-3.02,0-4.53.03-.41.13-.79.56-.98Z"/>
  <path class="cls-1" d="M30.22,21.47c-3.89,2.65-7.28,5.43-10.31,8.62-4.56,4.8-8.29,10.13-10.35,16.49-2.85,8.8-1.6,17.01,3.79,24.55,6.22,8.7,14.75,14.24,24.73,17.7,8.85,3.07,18.01,4.22,27.34,4.41,14.22.3,27.98-2.29,41.58-6.16,10.99-3.13,21.83-6.75,32.84-9.8,9.37-2.6,18.83-4.79,28.55-5.55,28.54-2.21,54.5,4.4,76.93,22.78,5.12,4.19,9.62,9,13.64,14.25.22.28.42.57.5,1.04-.42-.25-.84-.49-1.26-.75-11.4-6.94-23.24-12.93-36.01-16.98-12.85-4.08-26.01-5.87-39.49-5.11-11.6.65-23.01,2.64-34.35,5.09-13.24,2.86-26.35,6.27-39.64,8.88-11.67,2.29-23.42,3.88-35.35,3.63-12.51-.26-24.77-2.01-36.49-6.62-10.66-4.19-19.87-10.38-26.87-19.57-4.12-5.4-6.67-11.42-7-18.27-.27-5.54.98-10.78,3.43-15.73,4.74-9.6,12.28-16.49,21.39-21.84.62-.36,1.26-.69,1.89-1.03.06-.03.14-.01.51-.04Z"/>
  <path class="cls-3" d="M61.82.47c0,.5.04.66,0,.8-2.21,7.46-5.01,14.65-10.01,20.77-2.41,2.94-5.38,4.99-9.13,6.04-5.54,1.55-10.4,4.32-14.02,8.92-4.01,5.1-4.73,10.93-3.57,17.11.78,4.15,2.4,8.01,4.31,11.76.21.41.57.77.49,1.29-.22.06-.3-.1-.38-.22-3.92-5.58-6.94-11.56-7.98-18.38-1.42-9.3,1.8-16.83,8.85-22.86,1.61-1.38,3.36-2.57,5.15-3.71,8.63-5.47,16.72-11.62,23.87-18.94.75-.76,1.45-1.56,2.4-2.58Z"/>
  <path class="cls-1" d="M50.32,83.07c-1.77-3.18-2.63-6.23-1.83-9.61-1.55.07-2.04.46-5.01,3.95-1.04-3.12-1.39-6.19-.22-9.28.37-.97.14-1.07-.77-.91-2.6.46-4.92,1.36-6.38,3.97-.63-2.17-.35-4.11.22-6.02.6-2.02,1.73-3.76,3.13-5.32.47-.52.97-.7,1.69-.58,4.45.75,7.87,3.18,10.7,6.54,1.73,2.05,3.53,4.02,5.63,5.7,6.33,5.1,13.53,7.35,21.61,6.62-.84.52-2.55.93-4.56,1.09-4.49.35-8.84-.23-13.04-1.92-2.18-.88-4.45-.91-6.7-.29-2.25.61-3.59,2.13-4.14,4.37-.11.46-.19.93-.34,1.67Z"/>
  <path class="cls-4" d="M224.37,97.11c-22.15-4.39-44.5-4.33-66.9-3.09,22.56-4.57,44.93-5.14,66.9,3.09Z"/>
  <path class="cls-4" d="M75.12,10.96c.21.41.04.62-.04.83-3.07,7.42-7.63,13.68-14.28,18.34-1,.7-1.83.95-3.03.32-1.69-.9-3.59-1.33-5.52-1.49-.3-.02-.65.04-.93-.41,8.73-4.74,16.9-10.24,23.8-17.59Z"/>
  <path class="cls-4" d="M38.19,80.42c-2.27-.28-4.44-.86-6.55-1.62-6.36-2.3-11.51-6.03-14.49-12.28-1.93-4.04-2.55-8.35-2.35-12.8.11-2.52.4-5,.98-7.45.09-.37.07-.8.56-1.24-1.19,7.91-.74,15.41,3.71,22.19,4.37,6.66,10.84,10.49,18.15,13.19Z"/>
  <path class="cls-4" d="M82.42,75.41c-2.45.01-3.93-1.24-4.4-3.63-.16-.8-.66-1.89-.06-2.39.55-.45,1.27.54,1.9.9,2.06,1.17,4.19,2.15,6.4,2.99.31.12.84.1.83.53-.01.38-.51.45-.83.59-1.29.58-2.63.94-3.84,1.01Z"/>
  <path class="cls-1" d="M73.12,63.34c-2.28-4.19-3.52-8.71-4.26-13.38-.76-4.78-2.24-9.26-5.65-12.83-5.78-6.04-12.91-7.27-20.73-5.25-9.41,2.43-14.52,9.19-14.39,18.88.07,5.68,1.74,10.99,4.02,16.13.02.05.13.06.3.14-.35-2.14-.59-4.23-.55-6.34.05-2.15.28-4.23,1.76-6.24-.15,4.6.25,6.66,1.58,8.17,0-.45,0-.84,0-1.22.04-4.38,2.41-7.06,6.76-7.75,2.08-.33,4.15-.26,6.2.14,6.41,1.24,11.83,4.47,16.89,8.41,1.76,1.37,3.43,2.87,5.21,4.22,1.83,1.39,3.95,2.02,6.62,1.92-1.65-1.63-2.8-3.24-3.75-4.99ZM64.48,53.19c-.86.36-1.63.23-2.34-.38-1.05-.89-1.54-2.12-1.99-3.36-.42-1.15-.71-2.32-.6-3.66,1.74,2.16,3.48,4.33,5.22,6.49.37.46.15.71-.29.9Z"/>
</svg>